<svg width="139" height="288" viewBox="0 0 139 288" fill="none" xmlns="http://www.w3.org/2000/svg">
<path d="M4.76837e-07 71.6C4.76837e-07 58.8 1.86667 47.8666 5.6 38.8C9.33333 29.7333 14.2667 22.4 20.4 16.8C26.5333 10.9333 33.7333 6.66665 42 3.99998C50.5333 1.33332 59.6 -1.52588e-05 69.2 -1.52588e-05C78.8 -1.52588e-05 87.8667 1.46665 96.4 4.39998C104.933 7.06666 112.267 11.3333 118.4 17.2C124.8 22.8 129.733 30.1333 133.2 39.2C136.933 48.2667 138.8 59.0667 138.8 71.6V216.4C138.8 228.933 136.933 239.733 133.2 248.8C129.733 257.867 124.8 265.333 118.4 271.2C112.267 276.8 104.933 281.067 96.4 284C87.8667 286.667 78.8 288 69.2 288C59.6 288 50.5333 286.667 42 284C33.7333 281.333 26.5333 277.067 20.4 271.2C14.2667 265.333 9.33333 257.867 5.6 248.8C1.86667 239.733 4.76837e-07 228.933 4.76837e-07 216.4V71.6ZM32 69.6V218.4C32 226.4 33.0667 233.067 35.2 238.4C37.3333 243.467 40.1333 247.6 43.6 250.8C47.0667 254 51.0667 256.4 55.6 258C60.4 259.333 65.0667 260 69.6 260C74.4 260 78.9333 259.333 83.2 258C87.7333 256.4 91.7333 254 95.2 250.8C98.6667 247.6 101.467 243.467 103.6 238.4C105.733 233.067 106.8 226.4 106.8 218.4V69.6C106.8 61.6 105.733 55.0666 103.6 50C101.467 44.6667 98.6667 40.4 95.2 37.2C91.7333 33.7333 87.7333 31.3333 83.2 30C78.9333 28.6666 74.4 28 69.6 28C65.0667 28 60.4 28.6666 55.6 30C51.0667 31.3333 47.0667 33.7333 43.6 37.2C40.1333 40.4 37.3333 44.6667 35.2 50C33.0667 55.0666 32 61.6 32 69.6Z" fill="black"/>
</svg>
