<svg width="137" height="280" viewBox="0 0 137 280" fill="none" xmlns="http://www.w3.org/2000/svg">
<path d="M0.600001 -1.90735e-05H63.4C85.2667 -1.90735e-05 102.333 6.53332 114.6 19.6C126.867 32.4 133 50.9333 133 75.2V77.2C133 87.3333 131.933 96.5333 129.8 104.8C127.667 112.8 124.733 119.733 121 125.6C117.267 131.467 112.867 136.267 107.8 140C102.733 143.467 97.1333 145.867 91 147.2V149.6C97.1333 150.933 102.733 153.467 107.8 157.2C112.867 160.933 117.267 165.733 121 171.6C124.733 177.2 127.667 183.867 129.8 191.6C131.933 199.067 133 207.6 133 217.2V222.8C133 236.933 133.267 248.267 133.8 256.8C134.333 265.333 135.4 273.067 137 280H105C102.867 272 101.667 263.2 101.4 253.6C101.133 244 101 233.733 101 222.8V204.8C101 191.2 97.6667 180.8 91 173.6C84.6 166.133 75.2667 162.4 63 162.4H32.6V280H0.600001V-1.90735e-05ZM32.6 28V134.4H63C75.2667 134.4 84.6 130.667 91 123.2C97.6667 115.467 101 104.4 101 90V72.8C101 58.4 97.6667 47.3333 91 39.6C84.6 31.8667 75.2667 28 63 28H32.6Z" fill="black"/>
</svg>
