<svg width="146" height="146" viewBox="0 0 146 146" fill="none" xmlns="http://www.w3.org/2000/svg">
<rect width="73" height="73" fill="#EBEBEB"/>
<rect y="73" width="73" height="73" fill="#A6C3B1"/>
<rect x="73" y="73" width="73" height="73" fill="#283E31"/>
<rect x="73" width="73" height="73" fill="#ED695A"/>
<rect x="73" width="73" height="73" fill="#CEF47E"/>
<path d="M36.7058 42.3931C35.2626 46.1283 35.0202 49.8152 39.4652 51.7599C42.3712 53.0313 41.97 50.2799 42.6296 47.8612" stroke="black" stroke-width="7.82143" stroke-linecap="round"/>
<path d="M50.8319 42.8488C51.6918 45.294 52.159 48.6214 53.8191 50.6966C56.0164 53.4432 59.7659 56.3723 63.3378 56.8736C69.5809 57.7498 70.9616 53.581 71.3376 48.3169" stroke="black" stroke-width="7.82143" stroke-linecap="round"/>
<path d="M51.2876 73.3794C56.7889 83.8995 64.0039 92.5105 73.8185 99.4039C80.0099 103.752 89.0473 108.773 97.033 106.999C105.206 105.182 109.54 98.0188 113.26 91.151" stroke="black" stroke-width="7.82143" stroke-linecap="round"/>
</svg>
